HIERARCHY
ROOT Hips
{
	OFFSET 0.00000 0.00000 0.00000
	CHANNELS 6 Xposition Yposition Zposition Zrotation Yrotation Xrotation 
	JOINT LHipJoint
	{
		OFFSET 0 0 0
		CHANNELS 3 Zrotation Yrotation Xrotation
		JOINT LeftUpLeg
		{
			OFFSET 1.26600 -1.82114 0.91038
			CHANNELS 3 Zrotation Yrotation Xrotation
			JOINT LeftLeg
			{
				OFFSET 2.50076 -6.87080 0.00000
				CHANNELS 3 Zrotation Yrotation Xrotation
				JOINT LeftFoot
				{
					OFFSET 2.57364 -7.07102 0.00000
					CHANNELS 3 Zrotation Yrotation Xrotation
					JOINT LeftToeBase
					{
						OFFSET 0.13572 -0.37290 1.97004
						CHANNELS 3 Zrotation Yrotation Xrotation
						End Site
						{
							OFFSET 0.00000 -0.00000 1.01383
						}
					}
				}
			}
		}
	}
	JOINT RHipJoint
	{
		OFFSET 0 0 0
		CHANNELS 3 Zrotation Yrotation Xrotation
		JOINT RightUpLeg
		{
			OFFSET -1.20803 -1.82114 0.91038
			CHANNELS 3 Zrotation Yrotation Xrotation
			JOINT RightLeg
			{
				OFFSET -2.54916 -7.00377 0.00000
				CHANNELS 3 Zrotation Yrotation Xrotation
				JOINT RightFoot
				{
					OFFSET -2.56374 -7.04382 0.00000
					CHANNELS 3 Zrotation Yrotation Xrotation
					JOINT RightToeBase
					{
						OFFSET -0.23520 -0.64621 2.09921
						CHANNELS 3 Zrotation Yrotation Xrotation
						End Site
						{
							OFFSET -0.00000 -0.00000 1.10065
						}
					}
				}
			}
		}
	}
	JOINT LowerBack
	{
		OFFSET 0 0 0
		CHANNELS 3 Zrotation Yrotation Xrotation
		JOINT Spine
		{
			OFFSET 0.05492 2.10797 -0.12074
			CHANNELS 3 Zrotation Yrotation Xrotation
			JOINT Spine1
			{
				OFFSET 0.04577 2.11592 -0.04483
				CHANNELS 3 Zrotation Yrotation Xrotation
				JOINT Neck
				{
					OFFSET 0 0 0
					CHANNELS 3 Zrotation Yrotation Xrotation
					JOINT Neck1
					{
						OFFSET -0.10759 1.80167 0.15770
						CHANNELS 3 Zrotation Yrotation Xrotation
						JOINT Head
						{
							OFFSET 0.09237 1.77509 -0.40848
							CHANNELS 3 Zrotation Yrotation Xrotation
							End Site
							{
								OFFSET 0.03805 1.84093 -0.15754
							}
						}
					}
				}
				JOINT LeftShoulder
				{
					OFFSET 0 0 0
					CHANNELS 3 Zrotation Yrotation Xrotation
					JOINT LeftArm
					{
						OFFSET 3.42372 1.09575 -0.28209
						CHANNELS 3 Zrotation Yrotation Xrotation
						JOINT LeftForeArm
						{
							OFFSET 4.95681 -0.00000 0.00000
							CHANNELS 3 Zrotation Yrotation Xrotation
							JOINT LeftHand
							{
								OFFSET 3.40915 -0.00000 0.00000
								CHANNELS 3 Zrotation Yrotation Xrotation
								JOINT LeftFingerBase
								{
									OFFSET 0 0 0
									CHANNELS 3 Zrotation Yrotation Xrotation
									JOINT LeftHandIndex1
									{
										OFFSET 0.61640 -0.00000 0.00000
										CHANNELS 3 Zrotation Yrotation Xrotation
										End Site
										{
											OFFSET 0.49696 -0.00000 0.00000
										}
									}
								}
								JOINT LThumb
								{
									OFFSET 0 0 0
									CHANNELS 3 Zrotation Yrotation Xrotation
									End Site
									{
										OFFSET 0.50455 -0.00000 0.50455
									}
								}
							}
						}
					}
				}
				JOINT RightShoulder
				{
					OFFSET 0 0 0
					CHANNELS 3 Zrotation Yrotation Xrotation
					JOINT RightArm
					{
						OFFSET -3.24731 1.15872 -0.32221
						CHANNELS 3 Zrotation Yrotation Xrotation
						JOINT RightForeArm
						{
							OFFSET -5.35200 -0.00000 0.00000
							CHANNELS 3 Zrotation Yrotation Xrotation
							JOINT RightHand
							{
								OFFSET -3.43721 -0.00000 -0.00000
								CHANNELS 3 Zrotation Yrotation Xrotation
								JOINT RightFingerBase
								{
									OFFSET 0 0 0
									CHANNELS 3 Zrotation Yrotation Xrotation
									JOINT RightHandIndex1
									{
										OFFSET -0.72009 -0.00000 0.00000
										CHANNELS 3 Zrotation Yrotation Xrotation
										End Site
										{
											OFFSET -0.58056 -0.00000 0.00000
										}
									}
								}
								JOINT RThumb
								{
									OFFSET 0 0 0
									CHANNELS 3 Zrotation Yrotation Xrotation
									End Site
									{
										OFFSET -0.58942 -0.00000 0.58942
									}
								}
							}
						}
					}
				}
			}
		}
	}
}
MOTION
Frames: 6
Frame Time: .0083333
8.3572 17.6918 30.9676 0 0 0 0 0 0 -21 0 0 0 0 0 0 0 0 0 0 0 0 0 0 21 0 0 0 0 0 0 0 0 0 0 0 0 0 0 0 0 0 0 0 0 0 0 -16 0 0 21 0 0 11 0 0 0 -8 0 0 0 0 0 0 0 0 0 0 0 0 0 0 0 0 0 0 0 0 8 0 0 0 0 0 0 0 0 0 0 0 0 0 0 0 0 0
8.3572 17.6918 30.9676 -172.7920 -0.8922 -176.8680 0.0000 0.0000 0.0000 -12.1032 -2.5028 -6.3685 2.6974 10.1883 29.5886 1.4288 -3.2491 -21.7717 0.0047 -0.4409 -1.2116 0.0000 0.0000 0.0000 29.3781 -0.8436 -7.6510 -2.5628 -9.9513 28.8191 -1.4756 2.8950 -22.2082 -0.3406 -3.7503 10.3752 4.8550 0.2507 0.6767 3.3245 0.2805 -2.0003 0.6971 -0.0125 -2.4268 -8.7734 -1.7152 -15.8492 3.8727 -2.4979 27.4102 2.4629 -2.0790 11.7421 0.0000 0.0000 0.0000 -90.1120 6.1332 29.1879 13.9240 -22.6259 -2.7988 -0.0000 0.0000 -1.4001 15.6214 21.4773 5.8452 -7.1250 0.0000 -0.0000 -13.3085 51.7180 -2.2347 0.0000 0.0000 0.0000 87.6064 -2.5158 12.7869 -12.8435 21.0575 -2.3968 0.0000 -0.0000 -3.6191 -21.4411 11.8548 -4.6125 7.1250 -0.0000 -0.0000 4.0046 -17.2907 2.6399
8.3633 17.6924 30.9699 -172.8950 -0.8222 -176.8380 0.0000 0.0000 0.0000 -12.1607 -2.2382 -6.5278 2.7043 10.2003 29.6279 1.4273 -3.3319 -21.7442 0.0082 -0.5860 -1.6103 0.0000 0.0000 0.0000 29.3050 -0.5924 -7.6765 -2.5881 -9.9963 28.9649 -1.4924 2.7997 -22.3587 -0.3081 -3.5686 9.8661 4.6633 0.2457 0.7145 3.3167 0.2774 -2.0154 0.7959 -0.0095 -2.4645 -8.7686 -1.6753 -15.8154 3.9170 -2.4609 27.4063 2.4842 -2.0579 11.7309 -0.0000 -0.0000 0.0000 -90.1305 6.0723 28.8103 13.8767 -22.5581 -2.7806 -0.0000 0.0000 -0.6781 15.6533 21.5454 5.8752 -7.1250 0.0000 -0.0000 -13.3053 51.7909 -2.2582 -0.0000 -0.0000 0.0000 87.6447 -2.4806 12.7926 -12.8346 21.0444 -2.3936 0.0000 -0.0000 -3.3586 -21.5300 11.6530 -4.5560 7.1250 -0.0000 -0.0000 3.9357 -17.4974 2.5764
8.3699 17.6896 30.9711 -173.1520 -0.6946 -176.7870 0.0000 0.0000 0.0000 -12.4068 -2.0480 -6.6535 2.7106 10.2111 29.6631 1.4340 -3.3655 -21.7910 0.0138 -0.7597 -2.0877 0.0000 0.0000 0.0000 29.0847 -0.0668 -7.6286 -2.6241 -10.0602 29.1719 -1.5191 2.7075 -22.5845 -0.3495 -3.7982 10.5097 4.3128 0.2802 0.6938 3.2470 0.3252 -2.0114 0.9176 0.0257 -2.4488 -8.8039 -1.6970 -15.7570 3.9874 -2.5229 27.4455 2.5074 -2.0863 11.7399 -0.0000 0.0000 0.0000 -90.0979 5.9414 28.0975 13.7879 -22.4306 -2.7466 -0.0000 -0.0000 1.2504 14.8706 22.7759 5.8691 -7.1250 0.0000 -0.0000 -14.6048 52.8692 -2.8769 -0.0000 0.0000 0.0000 87.6608 -2.4313 12.8529 -12.8315 21.0398 -2.3924 0.0000 -0.0000 -3.7983 -21.3678 11.9201 -4.6201 7.1250 -0.0000 -0.0000 4.0580 -17.2278 2.6808
8.3730 17.6846 30.9728 -173.3520 -0.5863 -176.7930 0.0000 0.0000 0.0000 -12.6223 -2.0067 -6.6752 2.7260 10.2376 29.7498 1.4515 -3.4092 -21.9211 0.0115 -0.6912 -1.8994 0.0000 0.0000 0.0000 28.8848 0.1994 -7.5872 -2.6520 -10.1092 29.3311 -1.5348 2.6832 -22.7103 -0.3866 -3.9926 11.0557 4.0580 0.2928 0.7392 3.2345 0.3449 -1.9775 1.0459 0.0436 -2.4403 -9.0387 -1.7127 -15.8192 4.1652 -2.5363 27.5358 2.6126 -2.0992 11.7943 -0.0000 0.0000 0.0000 -90.1524 5.8635 27.7310 13.7628 -22.3945 -2.7371 -0.0000 -0.0000 2.3162 13.3747 24.8153 5.6987 -7.1250 0.0000 -0.0000 -17.0931 54.5766 -4.1119 -0.0000 0.0000 0.0000 87.5723 -2.2834 12.9681 -12.7845 20.9707 -2.3756 0.0000 -0.0000 -4.0235 -21.4963 12.0591 -4.7037 7.1250 -0.0000 -0.0000 3.9733 -17.0680 2.6385
8.3809 17.6778 30.9833 -173.2720 -0.6610 -176.8070 0.0000 0.0000 0.0000 -12.4298 -1.8079 -6.8407 2.7400 10.2618 29.8288 1.4515 -3.7354 -21.8649 0.0170 -0.8430 -2.3171 0.0000 0.0000 0.0000 29.0394 0.2872 -7.6563 -2.6812 -10.1602 29.4971 -1.5429 2.4251 -22.8295 -0.3956 -4.0382 11.1842 4.0678 0.2830 0.9172 3.2810 0.3429 -2.0060 1.0886 0.0397 -2.5703 -9.2819 -1.7323 -15.8858 4.4753 -2.6023 27.6894 2.7622 -2.1247 11.8796 -0.0000 0.0000 0.0000 -90.1383 5.8343 27.6393 13.7946 -22.4404 -2.7492 -0.0000 -0.0000 2.4292 13.0905 25.2309 5.6607 -7.1250 0.0000 -0.0000 -17.6020 54.9212 -4.3898 -0.0000 0.0000 0.0000 87.5660 -2.3410 13.4194 -12.8956 21.1340 -2.4155 0.0000 -0.0000 -4.2633 -21.9649 11.5090 -4.6007 7.1250 -0.0000 -0.0000 3.6263 -17.6119 2.3639
